<mxfile host="Electron" modified="2024-06-27T08:06:00.241Z" agent="Mozilla/5.0 (Windows NT 10.0; Win64; x64) AppleWebKit/537.36 (KHTML, like Gecko) draw.io/24.5.3 Chrome/124.0.6367.207 Electron/30.0.6 Safari/537.36" etag="aduCZy5ysKanwaAFtNrp" version="24.5.3" type="device">
  <diagram name="Page-1" id="2m-k-YQFxte_bAcMedme">
    <mxGraphModel dx="1036" dy="606" grid="1" gridSize="10" guides="1" tooltips="1" connect="1" arrows="1" fold="1" page="1" pageScale="1" pageWidth="850" pageHeight="1100" math="0" shadow="0">
      <root>
        <mxCell id="0" />
        <mxCell id="1" parent="0" />
        <mxCell id="a1-c1E1Id3Oxh_QEphW_-2" value="" style="rounded=0;whiteSpace=wrap;html=1;" vertex="1" parent="1">
          <mxGeometry x="200" y="50" width="480" height="540" as="geometry" />
        </mxCell>
        <mxCell id="a1-c1E1Id3Oxh_QEphW_-3" value="Librarian" style="shape=umlActor;verticalLabelPosition=bottom;verticalAlign=top;html=1;outlineConnect=0;" vertex="1" parent="1">
          <mxGeometry x="70" y="270" width="30" height="60" as="geometry" />
        </mxCell>
        <mxCell id="a1-c1E1Id3Oxh_QEphW_-5" value="" style="shape=umlActor;verticalLabelPosition=bottom;verticalAlign=top;html=1;outlineConnect=0;" vertex="1" parent="1">
          <mxGeometry x="750" y="270" width="30" height="60" as="geometry" />
        </mxCell>
        <mxCell id="a1-c1E1Id3Oxh_QEphW_-8" value="Student" style="text;html=1;align=center;verticalAlign=middle;resizable=0;points=[];autosize=1;strokeColor=none;fillColor=none;" vertex="1" parent="1">
          <mxGeometry x="735" y="330" width="60" height="30" as="geometry" />
        </mxCell>
        <mxCell id="a1-c1E1Id3Oxh_QEphW_-9" value="Login" style="ellipse;whiteSpace=wrap;html=1;" vertex="1" parent="1">
          <mxGeometry x="325" y="60" width="230" height="50" as="geometry" />
        </mxCell>
        <mxCell id="a1-c1E1Id3Oxh_QEphW_-10" value="Add Book" style="ellipse;whiteSpace=wrap;html=1;" vertex="1" parent="1">
          <mxGeometry x="325" y="120" width="230" height="50" as="geometry" />
        </mxCell>
        <mxCell id="a1-c1E1Id3Oxh_QEphW_-11" value="Add Branch" style="ellipse;whiteSpace=wrap;html=1;" vertex="1" parent="1">
          <mxGeometry x="325" y="180" width="230" height="50" as="geometry" />
        </mxCell>
        <mxCell id="a1-c1E1Id3Oxh_QEphW_-12" value="Add Student" style="ellipse;whiteSpace=wrap;html=1;" vertex="1" parent="1">
          <mxGeometry x="325" y="235" width="230" height="50" as="geometry" />
        </mxCell>
        <mxCell id="a1-c1E1Id3Oxh_QEphW_-16" value="Issue Book" style="ellipse;whiteSpace=wrap;html=1;" vertex="1" parent="1">
          <mxGeometry x="325" y="288" width="230" height="50" as="geometry" />
        </mxCell>
        <mxCell id="a1-c1E1Id3Oxh_QEphW_-17" value="Return Book" style="ellipse;whiteSpace=wrap;html=1;" vertex="1" parent="1">
          <mxGeometry x="325" y="345" width="230" height="50" as="geometry" />
        </mxCell>
        <mxCell id="a1-c1E1Id3Oxh_QEphW_-18" value="Add Panelty" style="ellipse;whiteSpace=wrap;html=1;" vertex="1" parent="1">
          <mxGeometry x="325" y="405" width="230" height="50" as="geometry" />
        </mxCell>
        <mxCell id="a1-c1E1Id3Oxh_QEphW_-19" value="Chanage Password" style="ellipse;whiteSpace=wrap;html=1;" vertex="1" parent="1">
          <mxGeometry x="325" y="465" width="230" height="50" as="geometry" />
        </mxCell>
        <mxCell id="a1-c1E1Id3Oxh_QEphW_-20" value="View Reports" style="ellipse;whiteSpace=wrap;html=1;" vertex="1" parent="1">
          <mxGeometry x="325" y="525" width="230" height="50" as="geometry" />
        </mxCell>
        <mxCell id="a1-c1E1Id3Oxh_QEphW_-22" value="" style="endArrow=classic;html=1;rounded=0;entryX=0.952;entryY=0.812;entryDx=0;entryDy=0;entryPerimeter=0;" edge="1" parent="1" target="a1-c1E1Id3Oxh_QEphW_-9">
          <mxGeometry width="50" height="50" relative="1" as="geometry">
            <mxPoint x="750" y="290" as="sourcePoint" />
            <mxPoint x="800" y="210" as="targetPoint" />
          </mxGeometry>
        </mxCell>
        <mxCell id="a1-c1E1Id3Oxh_QEphW_-26" value="" style="endArrow=classic;html=1;rounded=0;entryX=1;entryY=0.5;entryDx=0;entryDy=0;" edge="1" parent="1">
          <mxGeometry width="50" height="50" relative="1" as="geometry">
            <mxPoint x="750" y="290" as="sourcePoint" />
            <mxPoint x="555" y="492" as="targetPoint" />
          </mxGeometry>
        </mxCell>
        <mxCell id="a1-c1E1Id3Oxh_QEphW_-27" value="" style="endArrow=classic;html=1;rounded=0;entryX=1;entryY=0.5;entryDx=0;entryDy=0;exitX=0;exitY=0.3333333333333333;exitDx=0;exitDy=0;exitPerimeter=0;" edge="1" parent="1" source="a1-c1E1Id3Oxh_QEphW_-5" target="a1-c1E1Id3Oxh_QEphW_-20">
          <mxGeometry width="50" height="50" relative="1" as="geometry">
            <mxPoint x="740" y="300" as="sourcePoint" />
            <mxPoint x="564" y="121" as="targetPoint" />
          </mxGeometry>
        </mxCell>
        <mxCell id="a1-c1E1Id3Oxh_QEphW_-29" value="" style="endArrow=classic;html=1;rounded=0;entryX=0.003;entryY=0.684;entryDx=0;entryDy=0;entryPerimeter=0;" edge="1" parent="1" target="a1-c1E1Id3Oxh_QEphW_-9">
          <mxGeometry width="50" height="50" relative="1" as="geometry">
            <mxPoint x="100" y="290" as="sourcePoint" />
            <mxPoint x="150" y="240" as="targetPoint" />
          </mxGeometry>
        </mxCell>
        <mxCell id="a1-c1E1Id3Oxh_QEphW_-30" value="" style="endArrow=classic;html=1;rounded=0;entryX=0;entryY=0.5;entryDx=0;entryDy=0;" edge="1" parent="1">
          <mxGeometry width="50" height="50" relative="1" as="geometry">
            <mxPoint x="100" y="289" as="sourcePoint" />
            <mxPoint x="325" y="148" as="targetPoint" />
          </mxGeometry>
        </mxCell>
        <mxCell id="a1-c1E1Id3Oxh_QEphW_-32" value="" style="endArrow=classic;html=1;rounded=0;entryX=0;entryY=0.5;entryDx=0;entryDy=0;" edge="1" parent="1" target="a1-c1E1Id3Oxh_QEphW_-11">
          <mxGeometry width="50" height="50" relative="1" as="geometry">
            <mxPoint x="100" y="288" as="sourcePoint" />
            <mxPoint x="326" y="92" as="targetPoint" />
          </mxGeometry>
        </mxCell>
        <mxCell id="a1-c1E1Id3Oxh_QEphW_-33" value="" style="endArrow=classic;html=1;rounded=0;entryX=0;entryY=0.5;entryDx=0;entryDy=0;" edge="1" parent="1">
          <mxGeometry width="50" height="50" relative="1" as="geometry">
            <mxPoint x="100" y="289" as="sourcePoint" />
            <mxPoint x="325" y="263" as="targetPoint" />
          </mxGeometry>
        </mxCell>
        <mxCell id="a1-c1E1Id3Oxh_QEphW_-34" value="" style="endArrow=classic;html=1;rounded=0;entryX=0;entryY=0.5;entryDx=0;entryDy=0;" edge="1" parent="1" target="a1-c1E1Id3Oxh_QEphW_-16">
          <mxGeometry width="50" height="50" relative="1" as="geometry">
            <mxPoint x="100" y="288" as="sourcePoint" />
            <mxPoint x="326" y="92" as="targetPoint" />
          </mxGeometry>
        </mxCell>
        <mxCell id="a1-c1E1Id3Oxh_QEphW_-35" value="" style="endArrow=classic;html=1;rounded=0;entryX=0;entryY=0.5;entryDx=0;entryDy=0;" edge="1" parent="1" target="a1-c1E1Id3Oxh_QEphW_-17">
          <mxGeometry width="50" height="50" relative="1" as="geometry">
            <mxPoint x="100" y="286" as="sourcePoint" />
            <mxPoint x="326" y="90" as="targetPoint" />
          </mxGeometry>
        </mxCell>
        <mxCell id="a1-c1E1Id3Oxh_QEphW_-36" value="" style="endArrow=classic;html=1;rounded=0;entryX=0;entryY=0.5;entryDx=0;entryDy=0;" edge="1" parent="1" target="a1-c1E1Id3Oxh_QEphW_-19">
          <mxGeometry width="50" height="50" relative="1" as="geometry">
            <mxPoint x="100" y="288" as="sourcePoint" />
            <mxPoint x="326" y="92" as="targetPoint" />
          </mxGeometry>
        </mxCell>
        <mxCell id="a1-c1E1Id3Oxh_QEphW_-37" value="" style="endArrow=classic;html=1;rounded=0;entryX=0;entryY=0.5;entryDx=0;entryDy=0;" edge="1" parent="1" target="a1-c1E1Id3Oxh_QEphW_-18">
          <mxGeometry width="50" height="50" relative="1" as="geometry">
            <mxPoint x="100" y="286" as="sourcePoint" />
            <mxPoint x="326" y="90" as="targetPoint" />
          </mxGeometry>
        </mxCell>
        <mxCell id="a1-c1E1Id3Oxh_QEphW_-38" value="" style="endArrow=classic;html=1;rounded=0;entryX=0;entryY=0.5;entryDx=0;entryDy=0;" edge="1" parent="1" target="a1-c1E1Id3Oxh_QEphW_-20">
          <mxGeometry width="50" height="50" relative="1" as="geometry">
            <mxPoint x="99" y="288" as="sourcePoint" />
            <mxPoint x="325" y="92" as="targetPoint" />
          </mxGeometry>
        </mxCell>
      </root>
    </mxGraphModel>
  </diagram>
</mxfile>
